<svg class="logo-svg" width="506px" height="506px" viewBox="0 0 506 506"
  xmlns="http://www.w3.org/2000/svg">
  <g stroke="none" stroke-width="1" fill="none" fill-rule="evenodd">
    <path class="foreground" fill="#1187ff" d="M357.110221,150.918546 C354.367874,147.896906 350.410139,146 346.009519,146 L140.990481,146 C132.716969,146 126,152.715729 126,161 C126,169.286093 132.711467,176 140.990481,176 L307.582828,176 L-4.97379915e-14,483.582828 L0,7.99905757 C0,3.58130006 3.58795366,0 7.99905757,0 L498.000942,0 C502.4187,0 506,3.58795366 506,7.99905757 L506,498.000942 C506,502.4187 502.412046,506 498.000942,506 L20.0092347,506 L332,194.009235 L332,367.009519 C332,375.283031 338.715729,382 347,382 C355.286093,382 362,375.288533 362,367.009519 L362,161.990481 C362,157.607108 360.114919,153.660652 357.110221,150.918546 Z"></path>
  </g>
</svg>